# xmcd
#
# Track frame offsets: 
#        150
#        17811
#        32133
#        51824
#        77380
#        90864
#        107308
#        123347
#        148799
#        166140
#        185172
#        202081
#        218046
#        238518
#        264289
#        279478
#        301387
#
# Disc length: 4355 seconds
#
# Revision: 0
# Processed by: cddbd v1.5.2PL0 Copyright (c) Steve Scherf et al.
# Submitted via: ExactAudioCopy v1.0b1
#
DISCID=de110111
DTITLE=Van Morrison  - The Best Of Van Morrison Volume 3 [CD02)
DYEAR=1900
DGENRE=
TTITLE0=Van Morrison with The Chieftains \\ Shenandoah
TTITLE1=Precious Time
TTITLE2=Back On Top <ReMix>
TTITLE3=When The Leaves Come Falling Down
TTITLE4=Van Morrison with Lonnie Donegan \\ Lost John
TTITLE5=Van Morrison with Bobby Bland \\ Tupelo Honey
TTITLE6=Meet Me In The Indian Summer <Orchestral Version> <ReMix>
TTITLE7=Georgia On My Mind
TTITLE8=Hey Mr. DJ
TTITLE9=Steal My Heart Away
TTITLE10=Van Morrison with Ray Charles \\ Crazy Love
TTITLE11=Once In A Blue Moon
TTITLE12=Little Village
TTITLE13=Blue And Green
TTITLE14=Van Morrison with Carl Perkins \\ Sitting On Top Of The World
TTITLE15=Van Morrison with B.B. King \\ Early In The Morning
TTITLE16=Stranded
EXTD=
EXTT0=
EXTT1=
EXTT2=
EXTT3=
EXTT4=
EXTT5=
EXTT6=
EXTT7=
EXTT8=
EXTT9=
EXTT10=
EXTT11=
EXTT12=
EXTT13=
EXTT14=
EXTT15=
EXTT16=
PLAYORDER=
